# xmcd
# Track frame offsets:
# 150
# 14144
# 31375
# 45611
# 64065
# 80112
# 96096
# 109543
# 129546
# 146586
# 157971
# 177625
#
# Disc length: 2561 seconds
# Revision: 0
# Processed by: cddbd v1.4PL0 Copyright (c) Steve Scherf et al.
# Submitted via: VisiTrax 2.9.5.180 - For more info visit www.synapsa.com
#
DISCID=a509ff0c
DTITLE=George McAnthony - The Vision
DYEAR=2000
DGENRE=
TTITLE0=Cross the human bridges (The ethnical peace song)
TTITLE1=Ramblin cowgirl
TTITLE2=Animal's hope shuffle
TTITLE3=Everything in you
TTITLE4=Heroes never cry
TTITLE5=Show me true emotions
TTITLE6=High and low
TTITLE7=The vision
TTITLE8=The little things that I like
TTITLE9=Mississippi river dance
TTITLE10=One more chance
TTITLE11=Put me down
EXTD=
EXTT0=
EXTT1=
EXTT2=
EXTT3=
EXTT4=
EXTT5=
EXTT6=
EXTT7=
EXTT8=
EXTT9=
EXTT10=
EXTT11=
PLAYORDER=
